<svg width="332" height="68" viewBox="0 0 332 68" fill="none" xmlns="http://www.w3.org/2000/svg">
<path d="M60.6335 0H7.36658C3.28312 0 0 3.29221 0 7.36658V60.6334C0 64.6987 3.29221 68 7.36658 68H60.6335C64.6987 68 68.0001 64.6896 68.0001 60.6334V7.36658C68.0001 3.28312 64.6897 0 60.6335 0ZM57.896 40.5891C55.0585 50.8114 45.8002 58.3689 34.714 58.6145C34.5412 58.6326 34.3593 58.6327 34.1683 58.6327C33.9773 58.6327 33.7863 58.6326 33.6044 58.6145C33.4135 58.6145 33.2043 58.6144 33.0042 58.5962H32.9496C24.9373 58.1961 17.9436 53.9854 13.7328 47.7465C11.0863 43.8176 9.5584 39.0885 9.5584 33.9864C9.5584 31.5854 9.89492 29.2662 10.5406 27.0744C10.6134 26.8289 10.8225 26.6743 11.0863 26.6743H19.7989C20.2172 26.6743 20.4809 27.0745 20.3263 27.4473C19.5533 29.4482 19.1168 31.6582 19.1168 33.9864C19.1168 41.4349 23.5367 47.7282 29.6574 49.8564C30.2394 50.0474 30.8488 50.2111 31.4672 50.3475C32.3403 50.5203 33.2407 50.6112 34.1683 50.6112C35.7326 50.6112 37.2695 50.3475 38.6883 49.8564C41.0711 49.0288 43.2083 47.5554 44.9272 45.6274C46.2914 44.0995 47.3827 42.2624 48.1375 40.2253C48.2103 39.9979 48.4195 39.8706 48.665 39.8706H57.3595C57.7414 39.8706 58.0051 40.2253 57.9051 40.5891H57.896ZM57.896 30.5668H49.3562C49.0925 30.5668 48.8651 30.3758 48.8105 30.1121C48.1648 27.1291 46.7916 24.4643 44.8999 22.3453C43.7085 20.9993 42.3079 19.8898 40.7619 19.0531C40.098 18.6711 39.3976 18.371 38.6792 18.1254C37.2422 17.6343 35.7326 17.3706 34.1592 17.3706H17.3251C16.8158 17.3706 16.5703 16.743 16.925 16.3883C21.0812 12.3049 26.6926 9.69477 32.9315 9.39465H32.986C33.1952 9.37646 33.4043 9.37644 33.5862 9.37644C33.7772 9.35825 33.9682 9.35824 34.1501 9.35824C34.332 9.35824 34.5321 9.35825 34.6958 9.37644C46.6552 9.64019 56.5227 18.4074 58.4326 29.8756C58.4871 30.2303 58.2234 30.5577 57.8869 30.5577L57.896 30.5668Z" fill="#4736FE"/>
<path d="M194.751 25.4562H203.064C203.355 25.4562 203.591 25.6926 203.591 25.9836V32.5317C204.846 27.3114 208.466 24.4011 214.586 24.5739C214.868 24.5739 215.105 24.8105 215.105 25.1015V33.1502C215.105 33.4412 214.868 33.6776 214.577 33.6776H213.741C208.166 33.6776 203.882 37.3973 203.882 43.6089V62.0981C203.882 62.3892 203.646 62.6257 203.355 62.6257H194.751C194.46 62.6257 194.224 62.3892 194.224 62.0981V25.9836C194.224 25.6926 194.46 25.4562 194.751 25.4562Z" fill="#4736FE"/>
<path d="M178.181 25.7652V30.1033C175.098 26.511 170.805 24.2737 166.048 24.2737C156.672 24.2737 149.06 32.9681 149.06 43.6997C149.06 54.4313 156.663 63.1257 166.048 63.1257C170.805 63.1257 175.098 60.8885 178.181 57.2961V61.8706C178.181 62.1616 178.417 62.3982 178.708 62.3982H187.366C187.657 62.3982 187.894 62.1616 187.894 61.8706V25.7561C187.894 25.4651 187.657 25.2287 187.366 25.2287H178.708C178.417 25.2287 178.181 25.4651 178.181 25.7561V25.7652ZM168.04 54.4767C162.42 54.4767 157.863 49.6475 157.863 43.6997C157.863 37.7518 162.42 32.9226 168.04 32.9226C173.351 32.9226 177.717 37.2335 178.181 42.7357C178.208 43.054 178.226 43.3723 178.226 43.6997C178.226 44.0271 178.208 44.3454 178.181 44.6637C177.717 50.166 173.36 54.4767 168.04 54.4767Z" fill="#4736FE"/>
<path d="M247.472 63.0345H286.306C286.597 63.0345 286.834 62.7981 286.834 62.5071V53.8309C286.834 53.5398 286.597 53.3034 286.306 53.3034H267.371L281.122 37.0241L281.459 36.6239C284.114 33.4044 285.761 29.3119 285.879 24.8374C285.879 24.6555 285.888 24.4645 285.888 24.2735C285.888 13.5601 277.202 4.86572 266.48 4.86572C256.922 4.86572 248.973 11.7776 247.372 20.8812C247.327 21.145 247.491 21.3997 247.745 21.4724L256.23 23.9097C256.549 24.0006 256.867 23.7733 256.894 23.4459C257.322 18.2802 261.842 14.2786 267.198 14.6697C271.928 15.0153 275.747 18.8531 276.075 23.5914C276.248 26.1743 275.402 28.557 273.901 30.3759L273.747 30.5488L262.942 43.3448L254.548 53.2852L247.272 61.8977C247.236 61.9432 247.209 62.0069 247.209 62.0706V62.7618C247.209 62.9073 247.327 63.0254 247.472 63.0254V63.0345Z" fill="#4736FE"/>
<path d="M325.667 39.9341V5.42027C325.667 5.12924 325.431 4.89282 325.14 4.89282H316.209C316.036 4.89282 315.872 4.97467 315.782 5.12019L291.572 39.9341L286.924 46.6187C286.861 46.7097 286.833 46.8097 286.833 46.9188V48.0101C286.833 48.3011 287.07 48.5377 287.361 48.5377H315.936V62.5069C315.936 62.7979 316.173 63.0343 316.464 63.0343H325.14C325.431 63.0343 325.667 62.7979 325.667 62.5069V48.5377H331.133C331.424 48.5377 331.661 48.3011 331.661 48.0101V40.4617C331.661 40.1706 331.424 39.9341 331.133 39.9341H325.667ZM315.936 39.9341H303.513L315.936 22.0634V39.9341Z" fill="#4736FE"/>
<path d="M144.203 40.9266C144.549 40.9266 144.804 41.2449 144.713 41.5814C141.402 54.0136 130.061 63.1628 116.592 63.1628C103.123 63.1628 91.2093 53.5407 88.2354 40.6355C87.7443 38.5256 87.4897 36.3247 87.4897 34.0601C87.4897 31.55 87.808 29.1127 88.4082 26.7845C91.6368 14.234 103.032 4.95752 116.601 4.95752C130.171 4.95752 141.284 14.0157 144.667 26.348C144.758 26.6754 144.503 27.0027 144.158 27.0027H133.59C133.372 27.0027 133.181 26.8663 133.099 26.6663C130.398 19.7362 124.023 14.8706 116.592 14.8706C106.716 14.8706 98.7124 23.465 98.7124 34.0692C98.7124 44.6735 106.716 53.2679 116.592 53.2679C124.095 53.2679 130.516 48.3114 133.163 41.2813C133.244 41.0812 133.435 40.9357 133.654 40.9357H144.203V40.9266Z" fill="#4736FE"/>
<path d="M232.539 63.0979C229.483 63.0979 226.964 62.6885 224.991 61.8609C223.017 61.0424 221.453 60.0057 220.298 58.7597C219.143 57.5138 218.288 56.2768 217.724 55.0582C217.233 53.9941 216.833 52.7754 216.524 51.4021C216.451 51.0747 216.696 50.7565 217.033 50.7565H224.89C225.118 50.7565 225.309 50.902 225.391 51.1203C225.7 51.9933 226.073 52.739 226.509 53.3393C227 54.0214 227.764 54.6217 228.801 55.1401C229.838 55.6585 231.202 55.9131 232.894 55.9131C234.913 55.9131 236.377 55.4765 237.268 54.6126C238.159 53.7395 238.605 52.7664 238.605 51.6841C238.605 50.6019 238.214 49.8106 237.441 49.1831C236.668 48.5465 235.522 48.0645 234.021 47.7371L228.874 46.6821C226.809 46.2547 224.881 45.6362 223.09 44.8086C221.298 43.9901 219.843 42.8624 218.715 41.4254C217.588 39.9885 217.024 38.1423 217.024 35.8869C217.024 32.5492 218.297 29.7844 220.834 27.6017C223.372 25.4099 226.828 24.3186 231.202 24.3186C233.976 24.3186 236.268 24.6915 238.078 25.4463C239.887 26.2012 241.343 27.1379 242.452 28.2656C243.553 29.3933 244.38 30.521 244.917 31.6488C245.381 32.6128 245.763 33.7406 246.072 35.0229C246.154 35.3503 245.899 35.6686 245.562 35.6686H237.987C237.768 35.6686 237.568 35.5322 237.496 35.3321C237.232 34.5955 236.904 33.977 236.513 33.4859C236.068 32.922 235.404 32.4127 234.54 31.9671C233.667 31.5214 232.503 31.2941 231.048 31.2941C229.074 31.2941 227.673 31.7215 226.846 32.5673C226.027 33.4131 225.609 34.3045 225.609 35.2503C225.609 36.2871 226.055 37.0873 226.946 37.6512C227.837 38.215 228.992 38.6425 230.402 38.9244L235.267 39.9794C238.751 40.6888 241.606 41.9075 243.835 43.6446C246.072 45.3816 247.181 47.9008 247.181 51.193C247.181 53.403 246.608 55.4129 245.453 57.2227C244.298 59.0325 242.634 60.4694 240.442 61.5244C238.25 62.5794 235.613 63.107 232.512 63.107L232.539 63.0979Z" fill="#4736FE"/>
</svg>
