<svg viewBox="0 0 68 68" xmlns="http://www.w3.org/2000/svg" fill="none">
<path d="M60.6335 0H7.36658C3.28312 0 0 3.29221 0 7.36658V60.6334C0 64.6987 3.29221 68 7.36658 68H60.6335C64.6987 68 68.0001 64.6896 68.0001 60.6334V7.36658C68.0001 3.28312 64.6897 0 60.6335 0ZM57.896 40.5891C55.0585 50.8114 45.8002 58.3689 34.714 58.6145C34.5412 58.6326 34.3593 58.6327 34.1683 58.6327C33.9773 58.6327 33.7863 58.6326 33.6044 58.6145C33.4135 58.6145 33.2043 58.6144 33.0042 58.5962H32.9496C24.9373 58.1961 17.9436 53.9854 13.7328 47.7465C11.0863 43.8176 9.5584 39.0885 9.5584 33.9864C9.5584 31.5854 9.89492 29.2662 10.5406 27.0744C10.6134 26.8289 10.8225 26.6743 11.0863 26.6743H19.7989C20.2172 26.6743 20.4809 27.0745 20.3263 27.4473C19.5533 29.4482 19.1168 31.6582 19.1168 33.9864C19.1168 41.4349 23.5367 47.7282 29.6574 49.8564C30.2394 50.0474 30.8488 50.2111 31.4672 50.3475C32.3403 50.5203 33.2407 50.6112 34.1683 50.6112C35.7326 50.6112 37.2695 50.3475 38.6883 49.8564C41.0711 49.0288 43.2083 47.5554 44.9272 45.6274C46.2914 44.0995 47.3827 42.2624 48.1375 40.2253C48.2103 39.9979 48.4195 39.8706 48.665 39.8706H57.3595C57.7414 39.8706 58.0051 40.2253 57.9051 40.5891H57.896ZM57.896 30.5668H49.3562C49.0925 30.5668 48.8651 30.3758 48.8105 30.1121C48.1648 27.1291 46.7916 24.4643 44.8999 22.3453C43.7085 20.9993 42.3079 19.8898 40.7619 19.0531C40.098 18.6711 39.3976 18.371 38.6792 18.1254C37.2422 17.6343 35.7326 17.3706 34.1592 17.3706H17.3251C16.8158 17.3706 16.5703 16.743 16.925 16.3883C21.0812 12.3049 26.6926 9.69477 32.9315 9.39465H32.986C33.1952 9.37646 33.4043 9.37644 33.5862 9.37644C33.7772 9.35825 33.9682 9.35824 34.1501 9.35824C34.332 9.35824 34.5321 9.35825 34.6958 9.37644C46.6552 9.64019 56.5227 18.4074 58.4326 29.8756C58.4871 30.2303 58.2234 30.5577 57.8869 30.5577L57.896 30.5668Z" fill="#4736FE"/>
</svg>
